<?xml version="1.0" standalone="no"?>
<!DOCTYPE svg PUBLIC "-//W3C//DTD SVG 20010904//EN"
 "http://www.w3.org/TR/2001/REC-SVG-20010904/DTD/svg10.dtd">
<svg version="1.0" xmlns="http://www.w3.org/2000/svg"
 width="1279.000000pt" height="1600.000000pt" viewBox="0 0 1279.000000 1600.000000"
 preserveAspectRatio="xMidYMid meet">

<g transform="translate(0.000000,1600.000000) scale(0.100000,-0.100000)"
fill="#000000" stroke="none">
<path d="M0 8000 l0 -8000 6395 0 6395 0 0 8000 0 8000 -6395 0 -6395 0 0
-8000z m6422 5312 c43 -78 268 -565 313 -677 15 -39 38 -92 50 -120 13 -27 44
-104 70 -169 26 -65 59 -144 72 -175 58 -131 247 -641 240 -648 -4 -3 -56 111
-91 201 -15 38 -42 101 -60 140 -52 111 -102 224 -134 306 -17 41 -59 136 -94
210 -67 140 -78 165 -123 265 -64 145 -177 361 -239 458 -35 55 -56 49 -57
-17 -1 -52 -20 -101 -39 -101 -8 0 -16 -10 -18 -23 -2 -13 -9 -21 -15 -19 -7
3 -11 10 -9 16 1 6 -2 11 -8 11 -5 0 -10 -6 -10 -14 0 -7 -7 -19 -15 -26 -17
-14 -78 -130 -68 -130 3 0 -1 -8 -9 -17 -13 -16 -48 -95 -48 -109 0 -4 7 -1
15 6 8 7 15 19 15 26 0 8 5 14 10 14 6 0 10 -37 10 -90 0 -53 -4 -90 -10 -90
-5 0 -10 -13 -10 -30 0 -20 -5 -30 -15 -30 -11 0 -15 -11 -15 -40 0 -37 -2
-40 -26 -40 -24 0 -26 -3 -21 -32 l5 -33 -44 4 c-39 3 -43 5 -32 19 11 13 10
15 -4 9 -9 -3 -19 -1 -21 6 -3 7 -10 1 -16 -13 -6 -14 -15 -32 -20 -40 -16
-28 -81 -176 -81 -185 0 -6 9 -21 20 -35 l20 -25 0 29 c0 16 3 27 6 23 3 -3 6
-33 5 -66 l-1 -61 40 0 c40 0 40 0 40 -40 l0 -40 40 0 40 0 0 -40 0 -40 40 0
40 0 0 -120 0 -120 -40 0 -40 0 0 -240 0 -240 -40 0 c-39 0 -40 -1 -40 -34 0
-32 -2 -34 -40 -38 l-40 -4 0 38 c0 21 -4 38 -10 38 -5 0 -10 -18 -10 -39 0
-22 -4 -43 -10 -46 -16 -10 -11 -23 12 -31 21 -6 21 -7 3 -20 -17 -13 -17 -14
-1 -14 9 0 14 -4 11 -10 -3 -5 1 -10 10 -10 9 0 14 -4 10 -9 -3 -5 5 -17 17
-25 27 -19 39 -11 12 9 -10 8 -14 15 -8 15 6 0 19 -9 29 -20 10 -11 13 -20 7
-20 -7 0 -12 -5 -12 -11 0 -5 5 -7 10 -4 6 3 10 1 10 -5 0 -7 9 -9 23 -5 15 4
18 3 9 -3 -20 -14 53 -56 94 -55 24 1 35 -4 39 -17 3 -10 16 -20 27 -22 12 -2
29 -16 39 -33 20 -34 24 -59 9 -50 -6 4 -8 11 -5 16 3 5 0 6 -8 3 -8 -3 -53
21 -100 53 -272 184 -617 527 -617 612 0 61 215 638 370 991 15 36 47 110 70
165 106 253 317 700 376 797 20 33 41 57 46 56 6 -2 28 -36 50 -76z m-95 -384
c-3 -7 -5 -2 -5 12 0 14 2 19 5 13 2 -7 2 -19 0 -25z m-27 -12 c0 -2 -7 -6
-15 -10 -8 -3 -15 -1 -15 4 0 6 7 10 15 10 8 0 15 -2 15 -4z m-3580 -231 c379
-123 852 -385 1320 -729 127 -94 446 -351 507 -409 l52 -50 -23 -18 c-13 -11
-29 -19 -34 -19 -5 0 -15 -7 -22 -15 -7 -9 -19 -14 -27 -11 -8 3 -12 2 -9 -2
2 -4 -31 -34 -75 -67 -73 -55 -92 -75 -70 -75 5 0 74 31 153 69 244 118 539
232 597 230 14 0 20 -3 14 -6 -7 -2 -13 -9 -13 -14 0 -5 -7 -26 -16 -47 -22
-49 -22 -44 -29 -195 -5 -106 -2 -161 14 -282 12 -82 23 -159 26 -170 2 -11 8
-38 13 -60 5 -22 14 -50 20 -62 7 -12 11 -26 11 -30 -2 -8 5 -29 26 -78 8 -16
17 -43 20 -60 7 -31 20 -60 79 -185 51 -108 90 -176 121 -213 6 -7 20 -28 32
-47 30 -48 112 -127 146 -139 40 -15 76 -4 83 26 4 14 -1 85 -10 157 -9 72
-21 163 -26 201 -18 143 -28 390 -19 475 5 47 10 96 11 110 4 38 23 20 21 -20
-1 -29 -1 -31 6 -10 4 14 12 25 18 25 5 0 51 -38 102 -84 50 -46 139 -118 199
-160 59 -41 109 -79 110 -83 2 -5 8 -8 14 -8 5 0 42 -19 81 -43 151 -91 197
-92 362 -9 80 41 208 121 213 133 2 5 9 9 14 9 6 0 54 32 107 72 97 73 122 93
199 162 35 33 45 37 53 25 15 -22 0 -450 -21 -589 -11 -75 -38 -285 -45 -348
-3 -28 1 -35 23 -43 14 -6 37 -7 51 -4 27 7 99 76 151 145 19 25 37 47 40 50
4 3 17 25 31 50 13 25 26 47 29 50 7 7 22 34 59 110 18 36 37 73 42 83 38 72
136 353 144 416 4 25 10 55 14 66 23 57 44 215 48 375 l6 177 -31 21 c-16 12
-36 22 -44 22 -10 0 -9 3 2 10 13 9 13 11 0 20 -13 9 -13 10 0 11 8 1 2 5 -15
9 l-30 8 27 1 c15 0 30 -4 33 -9 4 -6 15 -8 25 -5 60 19 778 -277 751 -309 -7
-8 -4 -12 9 -12 10 0 16 4 13 9 -3 5 4 6 16 2 30 -9 26 10 -6 35 -16 11 -39
29 -53 40 -81 62 -119 87 -148 99 -18 8 -35 17 -37 22 -14 21 458 399 741 593
314 216 487 317 789 462 329 157 593 223 667 165 171 -135 270 -993 182 -1596
-14 -99 -29 -186 -68 -415 -15 -82 -82 -342 -96 -369 -5 -9 -18 -42 -31 -74
-15 -40 -25 -54 -30 -45 -5 7 -9 8 -9 3 0 -16 -57 -34 -123 -39 l-58 -5 6 32
c4 18 13 43 21 57 16 30 69 190 79 240 4 19 13 54 21 78 8 24 23 87 34 140 11
53 24 104 29 112 5 9 9 35 9 58 0 23 4 48 9 54 4 7 6 24 5 38 -1 14 4 51 12
82 7 32 9 59 5 60 -5 2 -5 36 1 78 5 41 10 87 10 103 0 49 -16 28 -28 -35 -6
-35 -21 -111 -32 -169 -53 -286 -154 -622 -251 -836 -16 -34 -35 -78 -43 -98
-21 -50 -125 -225 -134 -225 -4 0 -25 33 -47 72 -78 140 -256 397 -332 479
l-24 26 129 5 c79 4 140 11 158 19 102 49 -54 274 -257 372 l-85 42 65 42 c36
23 104 66 150 95 90 56 116 85 106 117 -9 29 -77 65 -170 91 -68 19 -97 22
-210 17 -96 -3 -146 -10 -194 -26 -35 -11 -65 -21 -67 -21 -2 0 10 23 27 50
35 58 56 65 51 19 -1 -3 11 -3 26 0 25 5 25 6 4 9 -12 2 -20 8 -17 13 4 5 1 9
-4 9 -15 0 -14 26 2 42 7 7 44 54 81 103 85 112 194 238 221 255 20 13 20 13
0 -9 -16 -19 -17 -24 -5 -31 12 -7 17 -2 23 25 6 25 15 35 28 35 10 0 19 5 19
12 0 7 15 28 32 48 22 23 16 20 -15 -10 -26 -24 -47 -40 -47 -34 0 11 239 251
285 286 17 12 36 28 43 35 7 7 22 13 32 13 12 0 17 5 14 14 -3 8 8 22 28 34
19 12 45 30 58 42 15 13 31 18 44 14 15 -4 17 -3 8 4 -10 7 0 16 39 36 72 35
102 34 130 -6 67 -94 102 -203 139 -438 12 -74 23 -136 25 -138 12 -12 17 88
11 202 -13 234 -56 404 -117 462 -29 27 -36 29 -112 29 -93 -1 -126 -13 -243
-91 -197 -133 -564 -492 -729 -714 -11 -15 -38 -50 -60 -78 -77 -97 -133 -178
-190 -272 -32 -52 -68 -111 -80 -130 -12 -19 -28 -50 -35 -68 -12 -30 -11 -35
10 -57 13 -14 18 -25 12 -25 -24 0 -11 -19 18 -25 17 -4 30 -11 30 -16 0 -5 5
-9 11 -9 5 0 7 5 3 11 -6 11 92 -56 112 -75 5 -6 13 -19 17 -30 4 -11 13 -16
22 -12 8 3 15 0 15 -6 0 -9 3 -9 11 -1 12 12 -7 42 -102 153 -26 31 -49 62
-50 70 -8 34 40 86 114 123 110 55 212 79 342 81 105 1 215 -16 215 -34 0 -4
-60 -45 -132 -91 -154 -96 -251 -170 -239 -182 5 -5 44 -17 87 -28 149 -38
257 -105 335 -205 23 -30 40 -56 38 -59 -2 -2 -82 -8 -178 -14 -95 -6 -184
-14 -197 -17 -34 -9 -33 -10 106 -160 11 -12 20 -24 20 -26 0 -2 29 -34 65
-71 35 -37 82 -93 104 -124 22 -32 61 -87 86 -123 124 -175 184 -271 210 -335
15 -38 52 -128 82 -200 61 -145 87 -212 77 -202 -9 9 -36 -43 -30 -58 2 -6 -5
-11 -17 -11 -15 1 -43 -28 -104 -109 -45 -60 -83 -115 -83 -122 0 -6 -4 -13
-8 -15 -5 -1 -23 -25 -42 -53 -19 -27 -42 -58 -51 -68 -9 -10 -31 -48 -49 -83
-36 -74 -37 -117 -2 -122 12 -2 20 -8 17 -13 -4 -5 -1 -9 4 -9 6 0 11 4 11 9
0 4 32 12 72 15 87 9 128 25 236 89 54 32 94 65 115 93 18 24 37 43 44 44 6 0
15 9 18 21 7 20 8 19 22 -8 8 -15 40 -111 70 -213 31 -102 60 -193 65 -202 13
-26 27 -108 18 -108 -5 0 -10 6 -13 13 -3 9 -7 9 -20 -1 -9 -8 -13 -21 -10
-30 4 -14 3 -15 -6 -2 -8 12 -13 12 -23 2 -6 -6 -19 -12 -27 -12 -12 0 -171
-99 -236 -148 -5 -4 -35 -23 -65 -42 -30 -19 -56 -38 -58 -42 -2 -5 -9 -8 -16
-8 -7 0 -41 -20 -76 -45 -35 -25 -68 -45 -72 -45 -10 0 -83 -47 -117 -75 -91
-76 -122 -117 -116 -151 2 -10 4 -22 4 -26 1 -3 22 -15 49 -25 58 -22 251 -25
382 -5 184 28 518 140 568 190 21 21 21 22 2 22 -11 0 -20 6 -20 13 0 8 -9 22
-20 32 -11 10 -20 23 -19 29 0 7 2 7 5 -1 3 -7 12 -9 20 -6 9 3 14 -2 14 -14
0 -11 3 -22 6 -26 8 -8 64 13 64 25 0 5 -4 6 -10 3 -5 -3 -10 -1 -10 4 0 30
35 -3 134 -126 32 -40 96 -109 142 -152 91 -86 252 -211 271 -211 24 0 13 -18
-19 -33 -47 -22 -261 -74 -338 -83 -78 -8 -110 -19 -110 -37 0 -40 144 -208
244 -285 80 -62 109 -81 197 -132 41 -24 76 -44 77 -46 12 -9 -64 -107 -155
-198 -208 -208 -457 -373 -688 -455 -41 -14 -73 -30 -72 -36 3 -13 103 -10
185 6 35 6 64 10 66 8 3 -3 -53 -55 -167 -154 -30 -26 -140 -107 -227 -166
-414 -284 -900 -506 -1537 -703 -213 -66 -757 -204 -989 -252 -223 -45 -181
-53 131 -23 55 5 148 15 207 22 59 8 112 11 118 7 24 -15 155 -374 213 -585
41 -149 77 -355 62 -355 -3 0 -25 15 -48 34 -50 40 -124 79 -136 71 -5 -3 -5
-21 0 -42 5 -21 12 -99 15 -173 7 -151 -8 -275 -51 -415 -26 -85 -113 -267
-130 -272 -6 -2 -21 31 -34 73 -26 82 -77 169 -101 169 -10 0 -26 -31 -46 -92
-66 -188 -166 -368 -283 -503 -143 -167 -283 -280 -451 -366 -91 -47 -94 -47
-107 33 -13 80 -38 143 -56 143 -8 0 -49 -48 -93 -106 -83 -113 -235 -265
-327 -328 l-55 -38 -139 12 c-197 17 -367 44 -608 96 -313 69 -314 69 -430
170 -135 117 -264 250 -318 326 -112 158 -193 335 -233 512 -19 83 -33 99 -64
71 -21 -19 -83 -113 -122 -184 -13 -24 -28 -44 -33 -44 -17 0 -72 123 -94 208
-56 216 -55 441 3 674 17 72 19 91 9 91 -22 0 -93 -39 -150 -81 -29 -22 -56
-39 -61 -39 -20 0 25 203 83 369 40 116 137 357 167 415 11 21 26 55 33 75 7
20 23 58 35 85 l23 48 51 -7 c28 -3 85 -13 126 -20 125 -24 260 -44 365 -54
341 -33 334 -24 -45 58 -328 72 -884 236 -1214 358 -242 89 -540 223 -736 330
-182 100 -495 307 -595 394 -16 15 -63 54 -103 89 -40 34 -71 64 -68 67 2 3
28 0 56 -6 59 -13 200 -15 200 -3 0 4 -33 18 -72 31 -154 49 -344 158 -515
296 -182 146 -357 346 -322 368 8 4 49 28 93 52 101 57 173 112 262 200 64 63
154 184 154 207 0 15 -53 29 -140 37 -126 12 -341 74 -339 98 0 4 32 28 71 53
71 45 293 255 379 358 l44 53 42 -23 c23 -12 44 -31 47 -40 2 -10 12 -20 23
-24 18 -5 52 -20 103 -43 23 -10 109 -36 200 -61 19 -5 61 -16 92 -25 106 -29
258 -40 353 -26 202 30 182 98 -85 290 -57 41 -232 168 -245 178 -92 71 -174
132 -200 148 -19 12 -43 29 -55 40 -18 16 -23 17 -30 5 -6 -8 -10 -10 -10 -5
0 13 94 327 127 420 36 106 36 106 78 65 20 -19 43 -48 51 -65 21 -44 85 -81
249 -142 50 -19 134 -11 153 14 33 45 -1 108 -255 479 -33 48 -66 77 -77 67
-3 -3 -6 1 -6 10 0 20 -16 23 -24 5 -18 -42 11 78 31 127 14 33 49 119 78 191
86 213 134 298 275 494 41 58 82 116 91 130 15 23 62 77 178 206 88 98 133
155 127 161 -9 10 -163 22 -283 22 -62 1 -113 5 -113 10 0 18 71 100 121 140
28 22 75 52 104 67 55 27 183 64 223 64 35 0 26 16 -35 65 -68 54 -305 205
-322 205 -6 0 -11 6 -11 14 0 13 59 28 162 41 101 13 342 -40 442 -97 47 -27
81 -79 72 -111 -3 -12 -21 -39 -38 -59 -103 -116 -129 -149 -123 -158 3 -5 35
13 69 40 35 28 70 49 77 47 8 -2 10 -2 5 1 -10 5 27 38 83 72 22 14 43 32 46
42 5 15 -40 110 -89 188 -59 91 -161 246 -166 250 -3 3 -38 48 -77 100 -40 52
-83 106 -95 120 -13 14 -55 63 -94 110 -147 176 -492 490 -599 546 -16 8 -55
29 -85 47 -50 28 -63 31 -142 32 -78 0 -89 -2 -113 -25 -15 -14 -36 -43 -46
-65 -20 -45 -61 -200 -58 -218 2 -7 -2 -28 -8 -47 -14 -48 -4 -326 12 -340 9
-7 15 14 24 93 7 56 19 131 26 167 7 36 19 92 25 125 12 58 73 200 92 211 23
14 82 3 140 -26 35 -18 65 -35 68 -39 3 -3 24 -19 48 -34 23 -15 42 -32 42
-37 0 -6 10 -14 23 -19 47 -18 294 -257 485 -470 39 -43 166 -202 207 -260 36
-51 37 -53 14 -47 -21 5 -20 4 4 -7 15 -7 34 -23 43 -35 14 -20 13 -22 -10
-28 -13 -3 -35 0 -47 7 -35 18 -257 24 -343 9 -100 -18 -171 -46 -200 -81 -43
-50 -27 -66 221 -219 40 -25 72 -47 72 -50 1 -3 -38 -25 -86 -50 -139 -72
-256 -201 -278 -307 -5 -24 -2 -35 15 -51 27 -25 69 -32 205 -32 61 0 106 -4
100 -8 -28 -20 -118 -140 -246 -324 -25 -36 -119 -199 -119 -207 0 -3 -9 -17
-19 -30 l-18 -24 -36 59 c-52 87 -109 206 -170 361 -105 263 -152 426 -207
708 -56 284 -53 273 -61 241 -5 -16 -6 -47 -2 -70 3 -23 6 -76 8 -118 1 -43 3
-79 5 -80 1 -2 4 -34 6 -72 2 -38 8 -74 13 -80 5 -6 14 -45 21 -86 7 -41 18
-91 26 -111 7 -20 10 -39 7 -43 -3 -3 -1 -11 4 -18 6 -7 14 -29 18 -48 8 -40
71 -253 86 -288 14 -34 12 -47 -6 -32 -12 10 -14 8 -10 -8 8 -41 -49 -61 -109
-38 -33 13 -46 25 -60 56 -9 22 -14 45 -10 52 4 7 4 10 -1 6 -16 -15 -48 98
-107 372 -35 165 -47 232 -63 350 -34 255 -45 706 -24 957 29 350 111 646 198
715 42 32 174 22 321 -27z m3607 -337 c-2 -13 -4 -5 -4 17 -1 22 1 32 4 23 2
-10 2 -28 0 -40z m-1182 -68 c72 -56 185 -176 324 -344 38 -46 -15 -3 -106 84
-146 141 -220 197 -247 187 -25 -10 -29 -61 -8 -98 21 -36 46 -168 37 -192 -3
-7 3 -35 15 -61 26 -62 26 -63 -12 -71 -18 -4 -48 -13 -66 -22 -50 -22 -50 -9
0 16 24 11 37 21 30 21 -10 0 -10 4 0 20 8 13 20 18 33 15 11 -3 14 -2 8 1 -7
3 -13 17 -13 30 0 25 -15 33 -22 12 -3 -8 -14 -3 -30 15 -17 18 -35 27 -56 27
-26 0 -32 -5 -45 -42 -8 -24 -22 -60 -32 -81 -9 -22 -11 -36 -6 -32 6 3 11 -1
11 -9 0 -9 5 -16 10 -16 6 0 10 4 10 10 0 5 8 6 17 3 13 -5 9 -9 -18 -19 -58
-21 -57 -23 -39 99 28 179 121 487 147 487 3 0 29 -18 58 -40z m2559 -37 c46
-131 99 -339 82 -323 -2 3 -18 42 -34 86 -48 130 -72 174 -93 174 -15 0 -18
-5 -14 -23 6 -21 -19 -97 -31 -97 -3 0 -4 7 0 15 3 8 1 15 -4 15 -6 0 -10 9
-10 19 0 21 -25 35 -43 25 -7 -4 -21 -15 -32 -25 -11 -10 -39 -35 -63 -55 -23
-20 -40 -39 -37 -43 3 -3 10 1 15 9 6 10 7 2 3 -22 l-6 -38 42 0 c36 0 41 -3
42 -22 l0 -23 10 23 c5 13 18 26 29 29 11 3 20 12 20 19 0 8 4 14 9 14 5 0 11
6 14 13 2 6 2 1 0 -13 -3 -14 -9 -26 -14 -28 -5 -2 -9 -21 -9 -43 0 -26 -7
-46 -20 -59 -25 -25 -25 -30 -2 -31 15 -1 14 -2 -2 -6 -15 -4 -16 -7 -5 -14
24 -15 -20 -11 -142 15 -64 14 -128 27 -143 28 -14 2 -26 7 -26 11 0 14 80
115 179 225 100 111 224 222 246 222 6 0 24 -35 39 -77z m-1414 -283 c0 -29
-4 -40 -15 -40 -11 0 -15 11 -15 40 0 29 4 40 15 40 11 0 15 -11 15 -40z
m1053 -307 c3 -16 1 -32 -4 -37 -6 -6 -9 -5 -9 3 0 10 -3 11 -14 2 -11 -9 -15
-7 -20 11 -10 39 -7 48 18 48 18 0 25 -7 29 -27z m50 -11 c-21 -12 -27 -12
-34 0 -18 28 -10 35 26 24 l34 -11 -26 -13z m-1988 18 c-3 -5 1 -10 9 -10 18
0 20 -9 6 -30 -6 -10 -10 -11 -10 -2 0 6 -7 12 -15 12 -8 0 -15 5 -15 10 0 6
-8 10 -17 11 -12 1 -10 4 7 9 35 11 42 11 35 0z m-28 -35 c22 -11 22 -13 6
-26 -14 -12 -16 -12 -8 0 6 11 4 13 -8 8 -11 -4 -14 -2 -10 9 3 9 -2 14 -15
14 -11 0 -22 -6 -25 -12 -2 -7 -7 -10 -11 -7 -3 3 -4 13 -1 21 7 17 31 14 72
-7z m2078 15 c-11 -5 -27 -9 -35 -9 -9 0 -8 4 5 9 11 5 27 9 35 9 9 0 8 -4 -5
-9z m-2175 -9 c0 -5 -13 -11 -30 -13 -36 -5 -39 -1 -7 12 29 12 37 12 37 1z
m-103 -27 c-3 -3 -12 -4 -19 -1 -8 3 -5 6 6 6 11 1 17 -2 13 -5z m2273 -4 c-8
-5 -19 -10 -25 -10 -5 0 -3 5 5 10 8 5 20 10 25 10 6 0 3 -5 -5 -10z m-1193
-62 c-2 -13 -4 -3 -4 22 0 25 2 35 4 23 2 -13 2 -33 0 -45z m-10 -160 c-2 -13
-4 -3 -4 22 0 25 2 35 4 23 2 -13 2 -33 0 -45z m33 22 c0 -22 -4 -40 -10 -40
-5 0 -10 18 -10 40 0 22 5 40 10 40 6 0 10 -18 10 -40z m20 -400 c0 -22 -4
-40 -10 -40 -5 0 -10 18 -10 40 0 22 5 40 10 40 6 0 10 -18 10 -40z m-380 20
c0 -5 -2 -10 -4 -10 -3 0 -8 5 -11 10 -3 6 -1 10 4 10 6 0 11 -4 11 -10z m154
-155 c-7 -16 -24 -21 -24 -6 0 8 7 13 27 20 1 1 0 -6 -3 -14z m173 -62 c-2
-16 -4 -3 -4 27 0 30 2 43 4 28 2 -16 2 -40 0 -55z m30 15 c-2 -13 -4 -3 -4
22 0 25 2 35 4 23 2 -13 2 -33 0 -45z m20 -5 c-2 -16 -4 -5 -4 22 0 28 2 40 4
28 2 -13 2 -35 0 -50z m-80 -19 c-3 -3 -12 -4 -19 -1 -8 3 -5 6 6 6 11 1 17
-2 13 -5z m-3907 -2597 c0 -4 -6 -2 -14 5 -8 7 -12 17 -9 22 5 8 23 -12 23
-27z m6699 -2989 c77 -122 75 -116 57 -134 -9 -9 -19 -15 -21 -13 -17 19 -65
123 -61 135 4 9 -2 14 -17 14 -18 0 -19 2 -7 10 23 15 34 12 49 -12z m674 11
c59 -6 128 -16 154 -22 45 -12 48 -14 46 -42 -3 -39 -24 -115 -32 -115 -3 0
-13 14 -20 32 -8 18 -16 27 -19 20 -7 -22 -19 -12 -15 12 4 17 -1 27 -16 35
-14 8 -21 8 -21 1 0 -5 -8 -11 -17 -11 -17 -1 -17 -2 0 -6 9 -2 17 -13 17 -24
0 -11 5 -17 10 -14 18 11 11 -20 -7 -32 -10 -7 -63 -42 -117 -79 -55 -36 -126
-86 -158 -111 -32 -24 -62 -41 -68 -38 -5 3 -17 23 -26 43 -10 20 -19 40 -21
45 -2 4 1 7 6 7 6 0 11 -9 11 -20 0 -11 5 -20 11 -20 7 0 9 10 5 28 -6 26 -6
26 9 8 8 -11 15 -15 15 -8 0 6 6 9 14 6 7 -3 23 6 34 20 11 14 25 26 31 26 7
0 11 28 11 80 0 50 4 80 11 80 6 0 4 6 -4 14 -21 22 -72 27 -167 19 -81 -8
-85 -9 -83 -31 2 -13 -1 -21 -7 -17 -6 3 -10 12 -10 18 -1 7 -14 28 -30 47
-17 19 -30 38 -30 42 0 17 333 22 483 7z m-5803 -197 c0 -4 -5 -13 -12 -20 -9
-9 -8 -12 5 -12 20 0 23 -26 5 -33 -20 -6 7 -34 40 -40 15 -3 63 -14 107 -25
89 -23 223 -48 243 -46 6 1 12 -7 12 -18 0 -10 5 -16 10 -13 14 9 13 0 -9 -48
-37 -80 -103 -242 -111 -272 -5 -16 -22 -66 -38 -111 -78 -212 -95 -462 -31
-464 3 0 35 19 70 42 83 54 89 55 77 9 -9 -36 -27 -160 -28 -193 0 -10 -6 -15
-12 -13 -10 4 -12 -9 -9 -51 2 -34 6 -52 11 -44 5 8 11 -15 15 -56 6 -67 23
-153 52 -264 8 -30 16 -64 17 -75 5 -32 28 -75 37 -69 5 3 4 -7 -1 -22 -12
-32 -3 -75 11 -53 8 12 11 12 19 -1 9 -13 10 -13 10 0 1 11 6 8 20 -9 11 -12
18 -26 16 -30 -5 -8 42 -12 71 -6 20 5 73 82 73 109 1 6 12 25 25 41 21 25 27
28 35 15 5 -8 10 -26 10 -41 0 -14 4 -29 9 -35 4 -5 15 -29 24 -54 29 -85 69
-174 84 -189 10 -9 12 -16 5 -19 -6 -2 -8 -10 -5 -19 5 -12 3 -14 -7 -8 -9 5
-11 4 -6 -3 4 -7 14 -12 22 -12 8 0 14 -9 14 -20 0 -11 5 -20 11 -20 6 0 8 9
4 23 -5 16 0 13 19 -12 14 -19 26 -37 26 -40 0 -3 -7 2 -14 12 -15 19 -26 22
-26 6 0 -5 16 -17 35 -25 35 -14 44 -28 25 -37 -6 -3 -5 -4 2 -3 16 4 110 -93
102 -105 -3 -5 3 -6 13 -2 15 5 16 3 6 -8 -20 -20 -15 -31 10 -24 21 7 21 6 3
-8 -17 -13 -26 -12 -80 10 -82 33 -230 106 -234 115 -2 5 -11 8 -19 8 -17 0
-203 96 -285 146 -178 110 -385 257 -493 348 -82 70 -169 156 -163 161 3 3 15
-6 28 -20 16 -17 28 -22 39 -16 9 4 72 8 140 9 107 1 130 4 170 24 43 22 46
25 45 61 -1 33 -9 46 -56 90 -29 29 -62 58 -73 64 -31 20 -135 93 -190 135
-27 21 -74 45 -102 53 -48 14 -53 18 -53 43 0 38 33 160 81 302 39 116 44 168
15 171 -26 3 -63 -4 -93 -16 -40 -17 -41 -8 -6 53 86 149 118 180 148 139 13
-19 82 -37 140 -36 59 0 85 26 85 83 0 51 -13 77 -78 156 -16 19 -35 48 -43
64 -8 16 -23 34 -33 40 -11 6 -29 19 -40 29 -11 9 -25 17 -30 17 -6 0 -19 11
-28 24 -19 26 -15 36 57 119 38 45 55 57 55 39z m5600 -71 c0 -5 -7 -12 -16
-15 -14 -5 -15 -4 -4 9 14 17 20 19 20 6z m-540 -41 c-6 -11 -27 -36 -46 -55
-120 -120 -284 -320 -284 -345 0 -4 9 -17 20 -30 53 -61 300 -23 485 75 93 50
105 58 111 78 3 11 15 28 26 39 11 11 17 26 14 34 -3 8 -1 14 4 14 7 0 120
-220 120 -234 0 -3 17 -42 38 -88 53 -113 149 -347 157 -380 6 -24 1 -33 -36
-68 -24 -22 -49 -40 -56 -40 -7 0 -30 -12 -51 -27 -205 -146 -261 -185 -329
-228 -43 -27 -91 -57 -108 -66 -16 -9 -50 -28 -75 -42 -25 -14 -94 -51 -155
-82 -168 -86 -190 -101 -217 -146 -17 -28 -18 -33 -4 -55 27 -40 100 -54 276
-54 178 0 285 16 457 66 29 9 56 13 60 11 5 -3 26 4 48 15 22 11 69 30 105 43
82 30 130 54 130 65 0 5 28 23 62 40 70 34 75 32 97 -35 l14 -39 -44 -39 c-24
-21 -55 -46 -69 -55 -14 -10 -96 -69 -181 -133 -195 -147 -343 -240 -609 -382
-105 -56 -231 -109 -246 -103 -8 3 -11 -1 -7 -10 3 -9 -1 -14 -12 -14 -9 0
-31 -6 -48 -14 -95 -43 -144 -62 -257 -103 -124 -44 -263 -86 -350 -104 -25
-6 -54 -14 -65 -19 -11 -5 -33 -11 -50 -14 -16 -3 -79 -17 -140 -31 -207 -48
-367 -69 -532 -67 -84 1 -153 -3 -153 -7 0 -5 -28 -7 -62 -5 -42 2 -53 1 -33
-4 l30 -8 -34 -7 c-45 -9 -171 -9 -171 1 0 4 13 17 28 29 16 12 41 34 55 47
15 14 28 25 30 25 1 0 15 4 30 10 16 6 39 11 52 11 12 0 25 7 29 15 4 11 -1
15 -17 15 -14 0 -1 9 33 23 89 37 204 102 265 149 31 24 73 56 93 71 73 56
222 208 222 226 0 5 7 15 16 22 38 31 165 244 204 343 25 64 24 64 50 -19 22
-73 37 -88 78 -80 47 8 74 33 129 118 49 77 72 135 133 342 21 73 32 179 28
288 -1 64 -2 117 -1 117 9 0 41 -45 37 -51 -3 -5 2 -6 10 -3 10 4 16 1 16 -10
0 -10 5 -13 17 -9 12 5 14 3 8 -7 -6 -10 -1 -12 26 -6 18 3 38 11 44 17 5 5
12 54 13 108 5 143 -16 245 -122 575 -14 44 -22 84 -19 89 3 6 1 7 -4 4 -11
-7 -27 38 -19 52 3 4 36 16 73 25 37 9 84 21 103 26 19 5 55 15 80 21 65 18
411 87 438 88 20 1 21 -2 12 -19z m320 -161 c0 -5 -4 -9 -10 -9 -5 0 -10 7
-10 16 0 8 5 12 10 9 6 -3 10 -10 10 -16z m665 -553 c128 -16 238 -39 292 -61
24 -10 33 -20 33 -38 0 -23 -50 -131 -70 -151 -13 -13 -14 6 -1 19 12 14 22
63 14 68 -5 3 -48 -14 -98 -38 -49 -23 -95 -40 -101 -38 -6 2 -18 -7 -27 -21
-9 -13 -44 -38 -79 -55 l-62 -32 -18 33 c-22 41 -23 57 -2 36 14 -14 18 -14
38 6 13 11 26 31 30 44 4 12 11 22 16 22 5 0 11 12 13 28 4 26 4 26 12 5 7
-23 25 -32 25 -13 0 6 5 10 11 10 5 0 7 -4 4 -10 -3 -5 -1 -10 4 -10 6 0 11 9
11 20 0 11 -7 20 -15 20 -8 0 -15 5 -15 10 0 6 7 10 15 10 18 0 20 16 3 23 -7
3 -3 6 10 6 13 1 29 7 36 13 11 11 3 15 -43 25 -60 12 -230 16 -176 4 l30 -7
-32 -8 c-27 -6 -33 -12 -33 -34 0 -21 -8 -11 -35 43 -19 39 -35 73 -35 78 0
11 114 8 245 -7z m0 -96 c-3 -5 -14 -10 -23 -9 -14 0 -13 2 3 9 27 11 27 11
20 0z m-5 -24 c0 -3 -4 -8 -10 -11 -5 -3 -10 -1 -10 4 0 6 5 11 10 11 6 0 10
-2 10 -4z m-133 -108 c-3 -8 -6 -5 -6 6 -1 11 2 17 5 13 3 -3 4 -12 1 -19z
m33 -7 c0 -5 3 -18 6 -28 5 -16 4 -16 -10 1 -18 23 -20 36 -6 36 6 0 10 -4 10
-9z m-6193 -303 c-3 -8 -6 -5 -6 6 -1 11 2 17 5 13 3 -3 4 -12 1 -19z m14 -45
c-10 -17 -10 -16 -11 3 0 23 13 41 18 25 2 -6 -1 -18 -7 -28z m-36 -102 c3 -5
1 -12 -5 -16 -5 -3 -10 1 -10 9 0 18 6 21 15 7z m160 -139 c-3 -3 -11 0 -18 7
-9 10 -8 11 6 5 10 -3 15 -9 12 -12z m585 -211 c0 -6 -4 -13 -10 -16 -5 -3
-10 1 -10 9 0 9 5 16 10 16 6 0 10 -4 10 -9z m415 -271 c3 -5 1 -10 -4 -10 -6
0 -11 5 -11 10 0 6 2 10 4 10 3 0 8 -4 11 -10z m2383 -617 c-15 -2 -42 -2 -60
0 -18 2 -6 4 27 4 33 0 48 -2 33 -4z m-801 -169 c-3 -3 -12 -4 -19 -1 -8 3 -5
6 6 6 11 1 17 -2 13 -5z"/>
<path d="M6146 12575 c-3 -8 -1 -15 4 -15 6 0 10 7 10 15 0 8 -2 15 -4 15 -2
0 -6 -7 -10 -15z"/>
<path d="M5740 11860 c0 -5 5 -10 10 -10 6 0 10 5 10 10 0 6 -4 10 -10 10 -5
0 -10 -4 -10 -10z"/>
<path d="M5786 11855 c-8 -8 -23 -15 -34 -15 -22 0 -41 -34 -63 -112 -7 -26
-17 -44 -23 -41 -5 4 -6 1 -1 -6 4 -7 16 -11 26 -8 19 5 49 -30 49 -58 0 -8 5
-15 10 -15 6 0 10 18 10 40 l0 40 80 0 81 0 -3 78 -3 77 -37 3 c-25 2 -38 8
-38 18 0 18 -34 18 -54 -1z m-43 -80 c-3 -9 -8 -14 -10 -11 -3 3 -2 9 2 15 9
16 15 13 8 -4z m-3 -85 c0 -5 -4 -10 -10 -10 -5 0 -10 5 -10 10 0 6 5 10 10
10 6 0 10 -4 10 -10z"/>
<path d="M5572 11438 c0 -13 -3 -34 -6 -48 -3 -14 -4 -19 0 -12 3 6 12 12 20
12 18 0 18 44 0 59 -11 9 -14 7 -14 -11z"/>
<path d="M5586 11345 c-9 -26 -7 -32 5 -12 6 10 9 21 6 23 -2 3 -7 -2 -11 -11z"/>
<path d="M5860 11285 c0 -67 3 -79 25 -100 13 -14 27 -25 30 -25 3 0 5 45 5
100 l0 100 -30 0 -30 0 0 -75z"/>
<path d="M5658 11225 c6 -49 18 -52 14 -4 -2 21 -7 39 -11 39 -4 0 -5 -16 -3
-35z"/>
<path d="M5685 11198 c8 -45 27 -67 60 -68 11 -1 14 -4 7 -7 -16 -6 -6 -23 14
-23 8 0 12 5 9 10 -3 6 0 10 7 10 7 0 19 -9 26 -20 7 -11 17 -20 23 -20 8 0 8
4 0 14 -10 11 -8 16 8 21 21 6 29 25 11 25 -5 0 -10 -5 -10 -11 0 -7 -9 0 -20
14 -11 14 -20 32 -20 41 0 9 -8 16 -20 16 -13 0 -20 7 -20 20 0 17 -7 20 -41
20 l-41 0 7 -42z m73 -16 c6 -18 -15 -14 -22 4 -4 10 -1 14 6 12 6 -2 14 -10
16 -16z m-28 -17 c7 -8 8 -15 2 -15 -5 0 -15 7 -22 15 -7 8 -8 15 -2 15 5 0
15 -7 22 -15z"/>
<path d="M5872 11070 c0 -14 2 -19 5 -12 2 6 2 18 0 25 -3 6 -5 1 -5 -13z"/>
<path d="M6185 10750 c3 -5 10 -10 16 -10 5 0 9 5 9 10 0 6 -7 10 -16 10 -8 0
-12 -4 -9 -10z"/>
<path d="M2573 12283 c9 -2 23 -2 30 0 6 3 -1 5 -18 5 -16 0 -22 -2 -12 -5z"/>
<path d="M10180 12286 c0 -2 8 -10 18 -17 15 -13 16 -12 3 4 -13 16 -21 21
-21 13z"/>
<path d="M2546 12253 c-6 -14 -5 -15 5 -6 7 7 10 15 7 18 -3 3 -9 -2 -12 -12z"/>
<path d="M9950 12173 c-14 -7 -18 -13 -10 -13 17 0 47 17 40 23 -3 2 -16 -2
-30 -10z"/>
<path d="M10081 12064 c0 -11 3 -14 6 -6 3 7 2 16 -1 19 -3 4 -6 -2 -5 -13z"/>
<path d="M3120 11882 c0 -12 19 -26 26 -19 2 2 -2 10 -11 17 -9 8 -15 8 -15 2z"/>
<path d="M9640 11855 c-8 -9 -8 -15 -2 -15 12 0 26 19 19 26 -2 2 -10 -2 -17
-11z"/>
<path d="M7620 11570 c0 -5 5 -10 10 -10 6 0 10 5 10 10 0 6 -4 10 -10 10 -5
0 -10 -4 -10 -10z"/>
<path d="M9231 11424 c0 -11 3 -14 6 -6 3 7 2 16 -1 19 -3 4 -6 -2 -5 -13z"/>
<path d="M3540 11390 c0 -5 5 -10 11 -10 5 0 7 5 4 10 -3 6 -8 10 -11 10 -2 0
-4 -4 -4 -10z"/>
<path d="M9250 11385 c-7 -9 -8 -15 -2 -15 5 0 12 7 16 15 3 8 4 15 2 15 -2 0
-9 -7 -16 -15z"/>
<path d="M3550 11340 c8 -5 24 -9 35 -9 l20 0 -20 9 c-11 5 -27 9 -35 9 -13 1
-13 0 0 -9z"/>
<path d="M4305 11113 c-28 -7 -42 -20 -61 -57 -43 -83 -103 -360 -111 -513 -5
-91 -4 -104 15 -136 12 -18 19 -36 16 -39 -3 -4 1 -6 8 -5 7 1 36 -9 63 -22
28 -12 64 -29 82 -37 17 -8 40 -14 51 -14 11 0 22 -7 26 -15 3 -8 11 -15 18
-15 9 0 9 3 -2 11 -11 7 -6 8 20 3 19 -3 41 -11 49 -18 11 -8 13 -8 7 2 -5 9
2 12 28 12 44 0 102 43 177 133 121 144 138 247 56 337 -12 14 -34 41 -48 60
-36 48 -235 243 -284 278 -43 31 -78 42 -110 35z m111 -185 c69 -63 142 -140
214 -225 58 -71 55 -84 -5 -22 -45 45 -227 179 -245 179 -13 0 -4 -152 11
-180 14 -28 39 -113 39 -137 0 -32 -18 -29 -23 5 -4 25 -4 25 -6 -5 0 -18 -4
-33 -8 -33 -11 1 -73 99 -73 116 0 29 -16 12 -27 -27 -8 -32 -8 -51 2 -83 7
-22 13 -33 14 -24 1 18 27 48 41 48 4 0 8 -16 8 -36 0 -26 -4 -34 -14 -30 -8
3 -21 3 -29 0 -12 -5 -13 -10 -4 -20 6 -8 16 -14 21 -14 6 0 4 8 -3 17 -12 15
-12 16 4 10 10 -4 23 -7 29 -7 6 0 6 -6 -2 -15 -10 -13 -9 -15 11 -16 18 -1
19 -2 6 -6 -10 -3 -40 3 -68 13 l-49 18 6 121 c8 174 56 405 84 405 5 0 34
-24 66 -52z"/>
<path d="M8389 11111 c-60 -12 -249 -175 -354 -306 -22 -28 -43 -52 -46 -55
-4 -3 -18 -23 -33 -44 -34 -51 -34 -106 -1 -172 14 -27 25 -54 25 -61 0 -7 6
-16 14 -20 26 -15 97 -113 90 -125 -5 -7 -3 -8 5 -3 7 4 22 -1 34 -11 39 -34
66 -44 114 -44 103 1 300 73 341 125 19 24 22 40 22 116 0 48 -4 90 -8 93 -5
3 -9 29 -10 58 -1 69 -51 293 -84 380 -10 27 -55 79 -67 77 -3 -1 -22 -4 -42
-8z m15 -146 c3 -8 8 -38 12 -67 7 -48 6 -52 -9 -40 -20 17 -31 11 -57 -37
-18 -31 -26 -37 -46 -33 -34 6 -52 -13 -48 -51 1 -17 3 -35 3 -39 1 -4 8 -5
16 -2 23 9 19 -32 -10 -112 -14 -38 -25 -70 -25 -72 0 -1 -15 -2 -34 0 -19 1
-33 5 -30 9 2 4 0 10 -6 14 -5 3 -10 -2 -11 -12 0 -16 -1 -16 -9 2 -11 25 -12
44 -2 28 5 -8 13 -9 22 -3 10 7 11 10 3 10 -7 0 -13 11 -13 25 0 14 -4 25 -9
25 -5 0 -11 9 -14 20 -6 24 -30 26 -50 5 -12 -11 -17 -12 -20 -2 -3 6 -6 1 -7
-13 0 -22 -2 -23 -11 -7 -9 15 -3 28 32 73 74 97 282 294 309 294 4 0 10 -7
14 -15z m-284 -440 c0 5 7 0 15 -12 10 -14 22 -20 33 -16 14 5 13 2 -3 -11
-19 -17 -19 -17 13 -12 18 3 32 1 32 -4 0 -6 -7 -10 -15 -10 -18 0 -19 -12 -3
-28 6 -6 8 -15 4 -19 -8 -8 -84 75 -112 122 l-17 30 26 -24 c15 -14 27 -20 27
-16z"/>
<path d="M8220 10761 c0 -5 5 -13 10 -16 6 -3 10 -2 10 4 0 5 -4 13 -10 16 -5
3 -10 2 -10 -4z"/>
<path d="M8800 10992 c0 -5 7 -17 15 -28 15 -19 20 -8 9 20 -6 17 -24 22 -24
8z"/>
<path d="M10360 10975 c0 -5 5 -17 10 -25 5 -8 10 -10 10 -5 0 6 -5 17 -10 25
-5 8 -10 11 -10 5z"/>
<path d="M10391 10924 c0 -11 3 -14 6 -6 3 7 2 16 -1 19 -3 4 -6 -2 -5 -13z"/>
<path d="M10491 10864 c0 -11 3 -14 6 -6 3 7 2 16 -1 19 -3 4 -6 -2 -5 -13z"/>
<path d="M2411 10850 c0 -8 4 -24 9 -35 5 -13 9 -14 9 -5 0 8 -4 24 -9 35 -5
13 -9 14 -9 5z"/>
<path d="M2283 10795 c-3 -9 -3 -18 -1 -21 3 -3 8 4 11 16 6 23 -1 27 -10 5z"/>
<path d="M7931 10524 c0 -11 3 -14 6 -6 3 7 2 16 -1 19 -3 4 -6 -2 -5 -13z"/>
<path d="M2562 10300 c0 -14 2 -19 5 -12 2 6 2 18 0 25 -3 6 -5 1 -5 -13z"/>
<path d="M4062 9574 c-164 -25 -353 -104 -457 -194 -114 -98 -285 -295 -285
-328 0 -5 -6 -15 -14 -21 -8 -7 -17 -24 -21 -39 -4 -15 -10 -29 -14 -32 -8 -6
-53 -115 -79 -195 -33 -98 -54 -233 -54 -345 0 -117 5 -163 32 -262 10 -36 15
-70 12 -74 -4 -4 -2 -4 5 -1 7 5 14 -4 18 -24 4 -17 18 -47 31 -66 13 -20 24
-42 24 -49 0 -8 4 -14 9 -14 5 0 14 -13 21 -29 6 -16 22 -39 36 -52 13 -12 24
-31 24 -42 0 -11 3 -17 7 -14 11 12 43 -25 43 -50 0 -12 4 -23 10 -23 5 0 7 8
3 18 -6 16 -5 15 15 -1 11 -11 19 -24 18 -30 -2 -7 -1 -9 1 -4 8 13 25 7 20
-7 -4 -9 0 -12 11 -9 10 2 32 -9 50 -25 18 -16 48 -37 67 -48 20 -10 33 -24
31 -31 -3 -7 1 -10 9 -7 8 3 40 -10 72 -29 104 -60 299 -115 463 -129 116 -11
328 2 410 23 94 25 210 46 258 48 13 1 21 5 18 10 -7 11 69 35 84 26 9 -6 11
-4 5 5 -6 10 -4 12 8 7 10 -3 17 -3 17 1 0 5 28 21 63 37 34 16 75 40 91 53
16 13 36 20 44 17 8 -3 21 3 29 15 8 11 21 20 29 20 9 0 12 5 8 11 -4 7 0 9
13 5 15 -5 26 3 46 31 15 20 25 39 22 41 -2 2 -30 -12 -62 -31 -296 -178 -745
-288 -1062 -258 -183 17 -345 62 -493 137 -197 100 -325 266 -380 493 -17 74
-19 106 -15 226 6 142 13 182 60 335 67 219 228 449 389 555 24 15 54 36 68
45 41 27 211 88 274 100 76 13 212 13 296 0 233 -37 467 -190 629 -412 172
-236 270 -570 286 -969 3 -79 8 -159 11 -178 5 -29 7 -32 20 -20 7 8 14 28 15
44 1 17 5 83 10 148 11 137 -11 467 -37 582 -22 96 -62 233 -81 275 -47 108
-83 174 -137 255 -59 86 -175 213 -245 265 -18 14 -46 35 -61 48 -48 38 -169
97 -270 130 -153 50 -296 61 -468 36z m1212 -1859 c-4 -8 -11 -15 -16 -15 -6
0 -5 6 2 15 7 8 14 15 16 15 2 0 1 -7 -2 -15z"/>
<path d="M8228 9579 c-78 -8 -147 -23 -183 -39 -11 -5 -43 -16 -71 -25 -60
-18 -205 -107 -283 -173 -31 -26 -81 -75 -111 -109 -69 -77 -69 -77 -107 -138
-18 -27 -36 -54 -41 -60 -4 -5 -16 -26 -25 -45 -10 -19 -22 -42 -27 -50 -16
-26 -82 -203 -93 -252 -7 -27 -16 -48 -22 -48 -5 0 -10 -17 -11 -37 0 -21 -10
-110 -22 -198 -23 -168 -29 -365 -17 -500 4 -44 8 -88 8 -97 1 -10 4 -18 8
-18 4 0 13 -2 21 -5 10 -4 14 22 16 128 9 480 140 890 360 1129 155 168 259
237 457 304 132 44 394 44 499 -1 17 -7 60 -25 96 -40 274 -116 474 -373 572
-735 31 -114 33 -387 4 -490 -89 -318 -347 -521 -746 -586 -139 -23 -383 -21
-535 6 -230 40 -526 148 -646 236 -52 38 -76 41 -39 4 11 -11 18 -25 15 -30
-3 -6 1 -7 10 -4 11 5 14 2 8 -12 -5 -13 -3 -16 10 -11 11 4 20 -1 27 -13 6
-11 16 -17 25 -14 9 4 15 0 15 -10 0 -9 8 -16 18 -16 9 0 53 -18 97 -40 44
-22 87 -40 95 -40 13 0 13 -1 0 -11 -12 -8 -10 -10 9 -5 14 3 30 1 35 -4 15
-12 170 -54 291 -78 251 -52 484 -54 645 -6 126 38 283 101 353 142 70 40 181
124 213 161 12 13 27 20 33 17 6 -4 9 -2 6 6 -3 8 9 27 26 43 28 27 119 158
119 171 0 3 13 33 29 67 32 67 47 117 65 212 13 73 5 340 -13 405 -7 25 -20
72 -29 105 -9 33 -22 71 -29 85 -7 14 -13 28 -13 32 0 17 -58 127 -93 178 -21
30 -48 71 -61 90 -60 89 -249 248 -363 306 -22 11 -30 21 -26 32 4 13 3 14 -5
3 -7 -10 -14 -10 -29 -3 -59 32 -150 58 -268 77 -98 16 -158 17 -277 4z"/>
<path d="M6920 9284 c0 -8 5 -12 10 -9 6 4 8 11 5 16 -9 14 -15 11 -15 -7z"/>
<path d="M7994 9166 c-350 -80 -570 -389 -567 -796 0 -79 6 -150 17 -194 81
-339 323 -571 634 -606 161 -18 335 37 479 151 195 156 313 459 283 730 -14
130 -32 197 -80 297 -93 196 -254 340 -451 402 -82 27 -235 34 -315 16z m-35
-247 c98 -55 118 -183 45 -295 -90 -139 -285 -133 -340 11 -19 52 -15 134 10
183 19 37 76 92 113 108 46 20 130 17 172 -7z m591 -924 c13 -14 24 -41 27
-67 4 -38 1 -48 -24 -75 -50 -53 -127 -56 -174 -7 -35 38 -34 113 2 150 49 48
123 48 169 -1z"/>
<path d="M4305 9163 c-256 -57 -464 -272 -540 -559 -22 -82 -31 -292 -16 -379
64 -380 348 -655 681 -659 115 -1 179 14 285 65 258 124 435 431 435 753 0
382 -215 686 -545 771 -56 14 -249 20 -300 8z m-38 -248 c56 -33 83 -85 83
-160 0 -90 -34 -151 -111 -200 -74 -47 -156 -44 -215 7 -49 44 -64 77 -64 149
0 133 88 229 209 229 40 0 66 -7 98 -25z m527 -889 c47 -20 76 -61 76 -108 0
-32 -7 -47 -34 -74 -29 -29 -41 -34 -80 -34 -64 0 -106 38 -113 101 -5 41 -2
50 26 82 28 31 41 38 84 46 4 0 22 -5 41 -13z"/>
<path d="M10570 8020 c-8 -5 -11 -12 -7 -16 4 -4 15 0 24 9 18 18 8 23 -17 7z"/>
<path d="M6080 7916 c-47 -13 -116 -39 -155 -60 -38 -20 -61 -34 -49 -31 178
46 229 55 338 61 143 8 278 -6 399 -41 45 -13 83 -23 85 -21 14 14 -149 80
-251 102 -102 21 -264 17 -367 -10z"/>
<path d="M3370 7755 c0 -8 4 -15 8 -15 5 0 9 7 9 15 0 8 -4 15 -9 15 -4 0 -8
-7 -8 -15z"/>
<path d="M6135 7669 c-110 -16 -212 -57 -255 -104 -19 -21 -25 -37 -25 -74 0
-40 6 -56 38 -97 48 -62 159 -152 260 -211 l77 -46 0 -84 0 -83 -41 -45 c-76
-83 -236 -172 -367 -206 -89 -23 -224 -25 -298 -5 -117 31 -225 103 -308 205
-19 24 -26 43 -24 65 3 26 -3 34 -42 61 -42 28 -51 30 -135 30 -60 0 -100 -5
-119 -15 -31 -16 -93 -86 -84 -95 3 -3 21 2 41 10 20 8 57 15 82 15 65 0 97
-33 114 -119 57 -292 204 -630 354 -816 144 -179 331 -309 530 -369 350 -107
754 -43 1016 159 251 193 463 570 556 990 26 117 61 156 138 155 18 -1 49 -7
70 -14 50 -18 50 1 -1 52 -59 59 -140 76 -223 47 -54 -19 -83 -46 -110 -102
-33 -67 -143 -173 -219 -210 -221 -108 -463 -78 -698 87 -104 73 -119 97 -128
201 l-7 86 60 30 c108 54 240 162 294 240 64 93 21 179 -114 227 -123 43 -284
56 -432 35z m355 -94 c72 -18 140 -57 140 -81 0 -15 -59 -79 -105 -114 -198
-149 -233 -162 -318 -119 -23 12 -44 25 -47 29 -3 3 -27 22 -55 40 -79 54
-175 139 -175 156 0 38 86 80 205 100 96 16 263 11 355 -11z m-1024 -961 c22
-9 73 -21 114 -26 41 -5 76 -11 78 -13 2 -1 -10 -36 -26 -77 -17 -40 -36 -90
-43 -110 -7 -21 -19 -38 -26 -38 -28 0 -135 180 -149 249 -7 36 -2 37 52 15z
m1689 -6 c-13 -43 -86 -183 -114 -217 -16 -20 -34 -32 -42 -29 -8 3 -23 30
-33 59 -11 30 -30 75 -43 101 -12 26 -23 49 -23 51 0 2 29 7 64 11 35 3 87 15
117 25 73 26 82 26 74 -1z m-615 -309 c151 -28 237 -54 329 -99 45 -22 84 -40
87 -40 3 0 25 -14 49 -30 l44 -30 -46 -50 c-25 -28 -49 -50 -52 -50 -3 0 -18
21 -33 48 -15 26 -47 68 -71 95 -50 54 -92 63 -126 26 -19 -21 -62 -145 -96
-281 -9 -37 -25 -74 -35 -83 -31 -28 -182 -55 -311 -55 -109 0 -269 25 -306
48 -12 8 -49 104 -64 167 -18 75 -52 180 -66 201 -19 30 -56 35 -93 13 -26
-16 -92 -97 -126 -155 -10 -17 -15 -15 -58 28 l-48 47 41 25 c39 25 146 77
224 109 37 16 143 45 246 68 147 32 333 32 511 -2z m-724 -322 c13 -54 29
-107 35 -118 6 -12 8 -23 6 -26 -12 -11 -167 82 -167 101 0 19 84 146 94 143
5 -2 19 -47 32 -100z m1023 27 c35 -62 41 -78 30 -85 -67 -44 -129 -79 -142
-79 -12 0 -13 7 -7 33 5 17 18 71 30 120 12 48 27 87 33 87 7 -1 32 -35 56
-76z"/>
<path d="M5565 6100 c-3 -5 -1 -10 4 -10 6 0 11 5 11 10 0 6 -2 10 -4 10 -3 0
-8 -4 -11 -10z"/>
<path d="M5145 7630 c-3 -5 -2 -10 4 -10 5 0 13 5 16 10 3 6 2 10 -4 10 -5 0
-13 -4 -16 -10z"/>
<path d="M4413 7403 c9 -2 23 -2 30 0 6 3 -1 5 -18 5 -16 0 -22 -2 -12 -5z"/>
<path d="M3118 7393 c18 -2 45 -2 60 0 15 2 0 4 -33 4 -33 0 -45 -2 -27 -4z"/>
<path d="M3248 7393 c6 -2 18 -2 25 0 6 3 1 5 -13 5 -14 0 -19 -2 -12 -5z"/>
<path d="M3328 7393 c6 -2 18 -2 25 0 6 3 1 5 -13 5 -14 0 -19 -2 -12 -5z"/>
<path d="M9368 7393 c6 -2 18 -2 25 0 6 3 1 5 -13 5 -14 0 -19 -2 -12 -5z"/>
<path d="M9527 7393 c18 -2 50 -2 70 0 21 2 7 4 -32 4 -38 0 -55 -2 -38 -4z"/>
<path d="M3388 7383 c7 -3 16 -2 19 1 4 3 -2 6 -13 5 -11 0 -14 -3 -6 -6z"/>
<path d="M4218 7383 c7 -3 16 -2 19 1 4 3 -2 6 -13 5 -11 0 -14 -3 -6 -6z"/>
<path d="M8458 7383 c7 -3 16 -2 19 1 4 3 -2 6 -13 5 -11 0 -14 -3 -6 -6z"/>
<path d="M9693 7383 c9 -2 23 -2 30 0 6 3 -1 5 -18 5 -16 0 -22 -2 -12 -5z"/>
<path d="M2820 7335 c-14 -8 -20 -14 -14 -15 5 0 19 7 30 15 24 18 16 19 -16
0z"/>
<path d="M8968 7313 c7 -3 16 -2 19 1 4 3 -2 6 -13 5 -11 0 -14 -3 -6 -6z"/>
<path d="M7818 7273 c7 -3 16 -2 19 1 4 3 -2 6 -13 5 -11 0 -14 -3 -6 -6z"/>
<path d="M10110 7266 c0 -2 7 -7 16 -10 8 -3 12 -2 9 4 -6 10 -25 14 -25 6z"/>
<path d="M4650 7220 c-8 -5 -10 -10 -5 -10 6 0 17 5 25 10 8 5 11 10 5 10 -5
0 -17 -5 -25 -10z"/>
<path d="M4208 7183 c6 -2 18 -2 25 0 6 3 1 5 -13 5 -14 0 -19 -2 -12 -5z"/>
<path d="M4408 7183 c6 -2 18 -2 25 0 6 3 1 5 -13 5 -14 0 -19 -2 -12 -5z"/>
<path d="M8463 7183 c9 -2 23 -2 30 0 6 3 -1 5 -18 5 -16 0 -22 -2 -12 -5z"/>
<path d="M1677 6923 c-4 -3 -7 -11 -7 -17 0 -6 5 -4 10 4 8 13 11 12 23 -4 7
-10 22 -17 32 -15 18 4 18 5 1 22 -18 17 -47 23 -59 10z"/>
<path d="M11025 6910 c-3 -5 -1 -10 4 -10 6 0 11 5 11 10 0 6 -2 10 -4 10 -3
0 -8 -4 -11 -10z"/>
<path d="M5935 5296 c80 -70 247 -126 375 -125 115 0 260 50 359 123 42 31 33
32 -44 6 -174 -60 -423 -66 -590 -15 -135 41 -135 41 -100 11z"/>
<path d="M5352 3973 c-51 -122 -57 -154 -57 -288 1 -115 3 -136 24 -183 46
-103 88 -101 166 9 54 78 52 78 74 -16 7 -27 21 -68 32 -91 20 -42 88 -128 96
-121 2 3 -9 31 -26 63 -38 76 -59 151 -69 243 -4 41 -12 76 -18 78 -10 3 -93
-77 -147 -142 -21 -25 -27 -27 -40 -17 -49 41 -49 343 -2 493 13 40 -14 17
-33 -28z"/>
<path d="M6016 3404 c-4 -9 -4 -19 -1 -22 2 -3 7 3 11 12 4 9 4 19 1 22 -2 3
-7 -3 -11 -12z"/>
<path d="M7610 12144 c0 -8 5 -12 10 -9 6 3 10 10 10 16 0 5 -4 9 -10 9 -5 0
-10 -7 -10 -16z"/>
<path d="M7405 11979 c-10 -15 3 -25 16 -12 7 7 7 13 1 17 -6 3 -14 1 -17 -5z"/>
<path d="M7356 11934 c-3 -9 -13 -14 -20 -11 -8 3 -27 -5 -43 -19 -15 -14 -23
-24 -18 -23 6 1 19 -2 29 -6 13 -6 21 -4 24 3 2 7 27 13 60 14 l57 1 -65 6
-65 6 43 9 c35 6 41 10 31 22 -15 18 -25 18 -33 -2z"/>
<path d="M7511 11884 c0 -11 3 -14 6 -6 3 7 2 16 -1 19 -3 4 -6 -2 -5 -13z"/>
<path d="M9693 5143 c9 -2 23 -2 30 0 6 3 -1 5 -18 5 -16 0 -22 -2 -12 -5z"/>
<path d="M3770 3341 c0 -5 7 -12 16 -15 14 -5 15 -4 4 9 -14 17 -20 19 -20 6z"/>
<path d="M3810 3346 c0 -2 7 -9 15 -16 13 -11 14 -10 9 4 -5 14 -24 23 -24 12z"/>
<path d="M4188 3023 c7 -3 16 -2 19 1 4 3 -2 6 -13 5 -11 0 -14 -3 -6 -6z"/>
<path d="M4725 2851 c-3 -5 -1 -12 5 -16 5 -3 10 1 10 9 0 18 -6 21 -15 7z"/>
<path d="M4765 2700 c3 -5 8 -10 11 -10 2 0 4 5 4 10 0 6 -5 10 -11 10 -5 0
-7 -4 -4 -10z"/>
<path d="M6929 2343 c-13 -15 -12 -16 9 -11 15 4 22 2 22 -8 0 -10 13 -15 43
-16 31 -1 23 -3 -28 -8 l-70 -6 62 -2 c34 -1 69 1 77 4 14 5 13 9 -6 25 -12
11 -27 18 -34 15 -7 -3 -14 -1 -16 3 -7 18 -45 21 -59 4z"/>
<path d="M7298 2303 c12 -2 32 -2 45 0 12 2 2 4 -23 4 -25 0 -35 -2 -22 -4z"/>
<path d="M7208 2293 c7 -3 16 -2 19 1 4 3 -2 6 -13 5 -11 0 -14 -3 -6 -6z"/>
<path d="M9933 3993 c-14 -5 -18 -33 -5 -33 5 0 16 6 26 13 15 11 16 15 5 19
-8 3 -20 3 -26 1z"/>
</g>
</svg>
